<svg xmlns="http://www.w3.org/2000/svg" viewBox="0 0 192 32"><path fill="#fff" d="M77.896 5.393v19.12L65.097 5.393h-4.256v25.286h3.771V11.246l13.042 19.433h3.978V5.393zM85.06 26.349c0-3.187 2.214-4.781 6.331-5.751 2.698-.657 5.363-1.073 5.363-2.597 0-1.212-.935-2.043-3.425-2.043-2.94 0-4.152 1.315-4.152 3.116v.105h-3.459v-.069c0-3.88 2.733-6.096 7.472-6.096 4.671 0 7.334 2.078 7.334 5.681V30.68h-3.563v-2.251c-1.418 1.489-3.425 2.597-6.089 2.597-3.839 0-5.811-2.009-5.811-4.675zm11.936-2.355v-2.148c-.45.52-2.422 1.108-4.463 1.559-2.664.589-3.909 1.247-3.909 2.667 0 1.177.969 1.87 2.457 1.87 2.697 0 4.947-1.905 5.915-3.948zM104.402 13.359h3.666v2.251c1.177-1.593 3.044-2.597 5.328-2.597 4.358 0 7.022 2.84 7.022 7.551v10.115h-3.736v-9.803c0-2.84-1.419-4.641-4.186-4.641-2.491 0-4.393 1.87-4.393 4.917v9.526h-3.701V13.359zM122.981 22.019c0-5.057 3.979-9.006 8.96-9.006s8.995 3.949 8.995 9.006c0 5.023-4.013 9.006-8.995 9.006s-8.96-3.983-8.96-9.006zm14.287 0c0-3.048-2.352-5.542-5.327-5.542-2.976 0-5.293 2.494-5.293 5.542s2.317 5.542 5.293 5.542c2.975 0 5.327-2.494 5.327-5.542zM143.533 13.359h3.668v2.078c1.107-1.524 2.871-2.424 5.085-2.424 2.767 0 4.705 1.177 5.709 3.117 1.175-1.905 3.286-3.117 5.846-3.117 4.705 0 7.162 2.84 7.162 7.274v10.392h-3.772V20.53c0-2.598-1.418-4.295-4.013-4.295-2.317 0-4.116 1.593-4.116 4.675v9.768h-3.737V20.356c0-2.529-1.419-4.121-3.91-4.121-2.421 0-4.221 1.627-4.221 4.814v9.63h-3.702V13.36zM173.565 22.088c0-5.092 3.909-9.075 8.995-9.075 5.12 0 8.89 3.706 8.89 8.832V23.3h-14.321c.484 2.667 2.559 4.434 5.57 4.434 2.352 0 4.151-1.247 5.051-3.118l3.044 1.698c-1.522 2.84-4.255 4.711-8.095 4.711-5.466 0-9.133-3.915-9.133-8.937zm3.736-1.939h10.379c-.553-2.494-2.457-3.88-5.12-3.88-2.56 0-4.566 1.593-5.259 3.88zM20.19 7.093C9.039 7.093 0 16.144 0 27.309c0 1.148.101 2.273.284 3.369H15.99a5.388 5.388 0 0 1 4.199-8.76 5.388 5.388 0 0 1 4.199 8.76h15.707c.184-1.096.284-2.221.284-3.369 0-11.165-9.04-20.216-20.19-20.216zM45.888 9.203c-2.103 2.105-5.512 2.105-7.614 0s-2.103-5.519 0-7.624a5.38 5.38 0 0 1 7.614 0 5.395 5.395 0 0 1 0 7.624z"/></svg>
